Coordinates
version=1
nRows=65
nColumns=12
inDegrees=yes

Units are S.I. units (second, meters, Newtons, ...)
Angles are in degrees

endheader
time	SC_y	SC_z	SC_x	AC_y	AC_z	AC_x	GH_y	GH_z	GH_yy	EL_x	PS_y
       0.0              -33.82          7.584          3.202          42.36          3.472         -10.65          40.29          54.29          142.0          68.91          17.65
   0.01699              -33.82          7.588          3.211          42.36           3.47         -10.65          40.28          54.29          142.0          68.91          17.65
   0.03399              -33.82          7.593           3.22          42.36          3.468         -10.65          40.27          54.28          142.0          68.91          17.66
   0.05098              -33.82          7.597           3.23          42.36          3.465         -10.65          40.27          54.28          142.0          68.91          17.66
   0.06798              -33.82          7.602          3.241          42.36          3.463         -10.64          40.26          54.28          142.0          68.92          17.67
   0.08497              -33.82          7.608          3.252          42.35           3.46         -10.64          40.25          54.27          141.9          68.92          17.67
     0.102              -33.82          7.613          3.264          42.35          3.457         -10.64          40.24          54.27          141.9          68.92          17.68
     0.119              -33.82           7.62          3.277          42.35          3.454         -10.63          40.23          54.26          141.9          68.92          17.68
     0.136              -33.82          7.626          3.291          42.35           3.45         -10.63          40.22          54.25          141.8          68.93          17.69
    0.1529              -33.82          7.633          3.305          42.34          3.447         -10.63           40.2          54.25          141.8          68.93           17.7
    0.1699              -33.82          7.641          3.321          42.34          3.443         -10.62          40.19          54.24          141.8          68.93           17.7
    0.1869              -33.82          7.649          3.338          42.34          3.439         -10.62          40.18          54.23          141.7          68.94          17.71
    0.2039              -33.82          7.657          3.357          42.33          3.434         -10.61          40.16          54.22          141.7          68.94          17.72
    0.2209              -33.83          7.667          3.377          42.33          3.429         -10.61          40.14          54.22          141.7          68.95          17.73
    0.2379              -33.83          7.677          3.398          42.33          3.424          -10.6          40.13          54.21          141.6          68.95          17.74
    0.2549              -33.83          7.688          3.421          42.32          3.418          -10.6          40.11           54.2          141.6          68.96          17.75
    0.2719              -33.83            7.7          3.447          42.32          3.412         -10.59          40.09          54.19          141.5          68.96          17.76
    0.2889              -33.83          7.713          3.474          42.31          3.405         -10.58          40.06          54.17          141.4          68.97          17.78
    0.3059              -33.83          7.727          3.505           42.3          3.398         -10.57          40.04          54.16          141.4          68.98          17.79
    0.3229              -33.83          7.743          3.538           42.3           3.39         -10.56          40.01          54.15          141.3          68.98          17.81
    0.3399              -33.83           7.76          3.574          42.29          3.381         -10.55          39.98          54.13          141.2          68.99          17.83
    0.3569              -33.83          7.779          3.614          42.28          3.371         -10.54          39.95          54.11          141.1           69.0          17.84
    0.3739              -33.83            7.8          3.658          42.27           3.36         -10.53          39.91          54.09          141.0          69.01          17.87
    0.3909              -33.83          7.823          3.707          42.26          3.348         -10.52          39.87          54.07          140.9          69.02          17.89
    0.4079              -33.83          7.849          3.761          42.25          3.335          -10.5          39.83          54.05          140.8          69.03          17.92
    0.4249              -33.83          7.878          3.822          42.24           3.32         -10.49          39.78          54.02          140.7          69.05          17.94
    0.4419              -33.83           7.91          3.889          42.23          3.303         -10.47          39.72          53.99          140.5          69.06          17.98
    0.4588              -33.83          7.946          3.966          42.21          3.284         -10.45          39.66          53.96          140.3          69.08          18.01
    0.4758              -33.83          7.987          4.052           42.2          3.263         -10.42          39.59          53.92          140.2           69.1          18.05
    0.4928              -33.83          8.033           4.15          42.18          3.239          -10.4          39.51          53.88          139.9          69.12           18.1
    0.5098              -33.83          8.086          4.262          42.16          3.211         -10.37          39.41          53.83          139.7          69.15          18.16
    0.5268              -33.83          8.147           4.39          42.13           3.18         -10.33          39.31          53.77          139.4          69.18          18.22
    0.5438              -33.83          8.218          4.538           42.1          3.143         -10.29          39.19          53.71          139.1          69.21          18.29
    0.5608              -33.83          8.299           4.71          42.07          3.101         -10.24          39.04          53.63          138.7          69.25          18.37
    0.5778              -33.83          8.395          4.912          42.03          3.051         -10.19          38.88          53.54          138.3           69.3          18.47
    0.5948              -33.84          8.507          5.149          41.98          2.993         -10.13          38.68          53.44          137.7          69.35          18.58
    0.6118              -33.84          8.641          5.431          41.93          2.923         -10.05          38.45          53.32          137.1          69.42          18.72
    0.6288              -33.84          8.801          5.769          41.86           2.84         -9.956          38.17          53.17          136.4          69.49          18.88
    0.6458              -33.84          8.995          6.179          41.78          2.739         -9.845          37.83          52.99          135.4          69.59          19.07
    0.6628              -33.84          9.232          6.678          41.68          2.616         -9.709          37.42          52.77          134.3           69.7          19.31
    0.6798              -33.85          9.525          7.295          41.56          2.464         -9.541          36.91           52.5          133.0          69.84          19.61
    0.6968              -33.85          9.889          8.065          41.41          2.274         -9.332          36.28          52.16          131.3          70.02          19.98
    0.7138              -33.86          10.35          9.034          41.22          2.035         -9.068          35.48          51.74          129.1          70.24          20.44
    0.7308              -33.87          10.93          10.27          40.97          1.732         -8.733          34.46           51.2          126.4          70.52          21.03
    0.7478              -33.87          11.68          11.84          40.66          1.343         -8.304          33.16           50.5          122.9          70.88          21.79
    0.7647              -33.89          12.64          13.87          40.27         0.8448         -7.754          31.49          49.62          118.4          71.34          22.76
    0.7817               -33.9          13.86          16.45          39.76          0.208          -7.05          29.36          48.48          112.7          71.93           24.0
    0.7987              -33.92          15.41           19.7          39.12        -0.5928         -6.166          26.68          47.06          105.5          72.67          25.56
    0.8157              -33.94          17.28          23.66          38.34         -1.569         -5.089          23.42          45.32          96.75          73.57          27.46
    0.8327              -33.97          19.46          28.25          37.43           -2.7          -3.84          19.63          43.31          86.59          74.62          29.66
    0.8497               -34.0          21.82          33.22          36.46         -3.924         -2.487          15.53          41.13          75.58          75.75          32.04
    0.8667              -34.03          24.17          38.19          35.48         -5.149         -1.135          11.43          38.95          64.58          76.88          34.42
    0.8837              -34.06          26.35          42.78          34.57          -6.28          0.114          7.645          36.94          54.42          77.93          36.62
    0.9007              -34.08          28.22          46.74           33.8         -7.256          1.191          4.379           35.2          45.65          78.83          38.52
    0.9177               -34.1          29.77          49.99          33.16         -8.057          2.076          1.698          33.78          38.45          79.57          40.08
    0.9347              -34.11          30.99          52.58          32.65         -8.694          2.779        -0.4333          32.64          32.73          80.16          41.32
    0.9517              -34.13          31.95           54.6          32.25         -9.192          3.329         -2.102          31.75          28.25          80.62          42.29
    0.9687              -34.13           32.7          56.18          31.94         -9.581          3.758         -3.402          31.06          24.76          80.98          43.05
    0.9857              -34.14          33.28          57.41           31.7         -9.884          4.094         -4.418          30.52          22.03          81.26          43.64
     1.003              -34.15          33.74          58.38          31.51         -10.12          4.357         -5.218           30.1          19.89          81.49           44.1
      1.02              -34.15          34.11          59.15          31.35         -10.31          4.566         -5.852          29.76          18.19          81.66          44.47
     1.037              -34.16           34.4          59.76          31.23         -10.46          4.734         -6.361          29.49          16.82           81.8          44.77
     1.054              -34.16          34.63          60.26          31.13         -10.59           4.87         -6.773          29.27          15.71          81.92          45.01
     1.071              -34.16          34.83          60.67          31.05         -10.69          4.982          -7.11          29.09          14.81          82.01           45.2
     1.088              -34.16          34.99          61.01          30.99         -10.77          5.074         -7.389          28.94          14.06          82.09          45.36
